<svg xmlns="http://www.w3.org/2000/svg" xmlns:xlink="http://www.w3.org/1999/xlink" width="1200" zoomAndPan="magnify" viewBox="0 0 900 374.999991" height="500" preserveAspectRatio="xMidYMid meet" version="1.0"><defs><g/><clipPath id="65e9e8506f"><path d="M 62.359375 85.976562 L 208 85.976562 L 208 263.726562 L 62.359375 263.726562 Z M 62.359375 85.976562 " clip-rule="nonzero"/></clipPath><clipPath id="095f154483"><path d="M 114 100 L 236.359375 100 L 236.359375 250 L 114 250 Z M 114 100 " clip-rule="nonzero"/></clipPath><clipPath id="0e6c47ec88"><path d="M 108.105469 137 L 190.605469 137 L 190.605469 212.542969 L 108.105469 212.542969 Z M 108.105469 137 " clip-rule="nonzero"/></clipPath><clipPath id="509693a8b1"><path d="M 210.070312 85.976562 L 261.070312 85.976562 L 261.070312 136.976562 L 210.070312 136.976562 Z M 210.070312 85.976562 " clip-rule="nonzero"/></clipPath></defs><g clip-path="url(#65e9e8506f)"><path fill="#0a2979" d="M 162.929688 256.601562 C 117.851562 256.601562 81.308594 220 81.308594 174.851562 C 81.308594 129.703125 117.851562 93.105469 162.929688 93.105469 C 179.5625 93.105469 195.035156 98.089844 207.9375 106.648438 C 192.542969 93.753906 172.710938 85.996094 151.070312 85.996094 C 102.070312 85.996094 62.351562 125.777344 62.351562 174.851562 C 62.351562 223.925781 102.070312 263.710938 151.070312 263.710938 C 172.710938 263.710938 192.542969 255.949219 207.941406 243.054688 C 195.035156 251.613281 179.566406 256.601562 162.929688 256.601562 Z M 162.929688 256.601562 " fill-opacity="1" fill-rule="nonzero"/></g><g clip-path="url(#095f154483)"><path fill="#14a574" d="M 152.304688 106.542969 C 189.96875 106.542969 220.507812 137.125 220.507812 174.851562 C 220.507812 212.578125 189.96875 243.160156 152.304688 243.160156 C 138.402344 243.160156 125.472656 238.996094 114.691406 231.84375 C 127.558594 242.617188 144.128906 249.101562 162.210938 249.101562 C 203.15625 249.101562 236.347656 215.859375 236.347656 174.855469 C 236.347656 133.847656 203.15625 100.601562 162.210938 100.601562 C 144.128906 100.601562 127.558594 107.089844 114.691406 117.863281 C 125.472656 110.710938 138.402344 106.542969 152.304688 106.542969 Z M 152.304688 106.542969 " fill-opacity="1" fill-rule="nonzero"/></g><g clip-path="url(#0e6c47ec88)"><path fill="#0a2979" d="M 189.964844 155.878906 C 189.398438 152.914062 188.386719 150.121094 186.789062 147.554688 C 184.664062 144.136719 181.84375 141.460938 178.207031 139.683594 C 174.847656 138.046875 171.285156 137.417969 167.566406 137.628906 C 164.570312 137.800781 161.703125 138.527344 158.957031 139.742188 C 155.039062 141.472656 151.902344 144.105469 149.640625 147.753906 C 149.601562 147.820312 149.566406 147.886719 149.515625 147.945312 C 149.460938 148.015625 149.386719 148.023438 149.332031 147.949219 C 149.253906 147.839844 149.1875 147.726562 149.117188 147.613281 C 147.824219 145.613281 146.289062 143.832031 144.382812 142.382812 C 139.492188 138.675781 132.554688 136.796875 126.191406 137.910156 C 121.859375 138.664062 118.140625 140.585938 115.058594 143.71875 C 112.601562 146.214844 110.863281 149.15625 109.765625 152.472656 C 108.417969 156.523438 108.101562 160.679688 108.558594 164.902344 C 108.820312 167.316406 109.359375 169.671875 110.105469 171.980469 C 110.167969 172.175781 110.195312 172.386719 110.332031 172.550781 C 110.496094 173.25 110.777344 173.902344 111.039062 174.5625 C 111.082031 174.6875 111.121094 174.8125 111.167969 174.9375 C 112.464844 178.15625 114.113281 181.1875 116.054688 184.0625 C 118.609375 187.84375 121.628906 191.21875 124.957031 194.324219 C 127.75 196.933594 130.710938 199.347656 133.730469 201.6875 C 138.492188 205.371094 143.535156 208.652344 148.414062 212.171875 C 148.820312 212.46875 149.273438 212.539062 149.761719 212.46875 C 150.070312 212.421875 150.324219 212.253906 150.566406 212.074219 C 151.761719 211.175781 153 210.335938 154.226562 209.488281 C 156.484375 207.929688 158.742188 206.375 160.964844 204.769531 C 164.9375 201.898438 168.808594 198.898438 172.460938 195.628906 C 175.085938 193.28125 177.570312 190.792969 179.800781 188.0625 C 182.980469 184.175781 185.601562 179.953125 187.523438 175.304688 C 187.625 175.0625 187.707031 174.8125 187.796875 174.566406 C 188.074219 173.910156 188.347656 173.253906 188.511719 172.558594 C 188.546875 172.492188 188.589844 172.429688 188.613281 172.359375 C 189.554688 169.554688 190.171875 166.675781 190.398438 163.722656 C 190.597656 161.089844 190.460938 158.472656 189.964844 155.878906 Z M 189.964844 155.878906 " fill-opacity="1" fill-rule="nonzero"/></g><path fill="#fefbfc" d="M 187.796875 174.566406 C 187.570312 174.570312 187.34375 174.574219 187.117188 174.574219 C 179.621094 174.578125 172.125 174.578125 164.625 174.578125 C 164.457031 174.578125 164.285156 174.574219 164.117188 174.570312 C 163.945312 174.566406 163.832031 174.472656 163.765625 174.324219 C 163.710938 174.203125 163.671875 174.078125 163.625 173.953125 C 162.636719 171.257812 161.648438 168.5625 160.65625 165.867188 C 160.59375 165.699219 160.578125 165.496094 160.390625 165.382812 C 160.269531 165.53125 160.246094 165.699219 160.199219 165.859375 C 159.59375 167.925781 158.96875 169.988281 158.394531 172.0625 C 157.90625 173.808594 157.476562 175.570312 157.019531 177.324219 C 155.515625 183.121094 154.007812 188.917969 152.5 194.714844 C 152.453125 194.894531 152.414062 195.085938 152.335938 195.253906 C 152.140625 195.664062 151.808594 195.890625 151.355469 195.917969 C 150.90625 195.945312 150.535156 195.71875 150.359375 195.308594 C 150.292969 195.152344 150.253906 194.984375 150.21875 194.820312 C 149.035156 189.585938 147.855469 184.351562 146.675781 179.117188 C 146.214844 177.070312 145.742188 175.027344 145.28125 172.984375 C 144.273438 168.503906 143.265625 164.027344 142.257812 159.546875 C 142.214844 159.363281 142.195312 159.175781 142.085938 158.996094 C 141.898438 159.144531 141.890625 159.367188 141.828125 159.554688 C 141.089844 161.800781 140.363281 164.046875 139.632812 166.292969 C 138.816406 168.808594 138.003906 171.324219 137.1875 173.839844 C 137.011719 174.386719 136.90625 174.464844 136.34375 174.46875 C 136.304688 174.46875 136.269531 174.46875 136.230469 174.46875 C 135.902344 174.488281 135.699219 174.347656 135.585938 174.03125 C 135.414062 173.535156 135.214844 173.042969 135.035156 172.546875 C 134.511719 171.085938 133.988281 169.628906 133.464844 168.171875 C 133.429688 168.085938 133.382812 168 133.335938 167.921875 C 133.328125 167.910156 133.246094 167.914062 133.242188 167.929688 C 133.175781 168.085938 133.113281 168.242188 133.0625 168.402344 C 132.511719 170.230469 131.960938 172.058594 131.40625 173.882812 C 131.195312 174.578125 131.191406 174.574219 130.460938 174.574219 C 124.175781 174.578125 117.890625 174.578125 111.605469 174.574219 C 111.417969 174.574219 111.226562 174.566406 111.039062 174.5625 C 110.777344 173.902344 110.496094 173.25 110.332031 172.550781 C 110.578125 172.550781 110.824219 172.542969 111.070312 172.542969 C 117.054688 172.542969 123.035156 172.542969 129.015625 172.539062 C 129.824219 172.539062 129.667969 172.636719 129.890625 171.898438 C 130.566406 169.65625 131.238281 167.410156 131.914062 165.167969 C 131.96875 164.988281 132.019531 164.804688 132.09375 164.632812 C 132.320312 164.101562 132.773438 163.875 133.339844 164.011719 C 133.886719 164.140625 134.285156 164.4375 134.480469 165 C 134.980469 166.425781 135.5 167.84375 136.019531 169.265625 C 136.089844 169.453125 136.105469 169.675781 136.296875 169.808594 C 136.453125 169.625 136.484375 169.390625 136.554688 169.179688 C 137.769531 165.460938 138.980469 161.742188 140.191406 158.027344 C 140.5 157.074219 140.808594 156.121094 141.121094 155.167969 C 141.171875 155.007812 141.222656 154.84375 141.292969 154.691406 C 141.476562 154.292969 141.796875 154.066406 142.230469 154.070312 C 142.660156 154.070312 142.996094 154.28125 143.1875 154.671875 C 143.277344 154.855469 143.328125 155.0625 143.375 155.261719 C 144.292969 159.335938 145.207031 163.410156 146.128906 167.480469 C 146.640625 169.730469 147.167969 171.972656 147.675781 174.21875 C 148.335938 177.152344 148.980469 180.085938 149.636719 183.015625 C 150.171875 185.394531 150.707031 187.769531 151.246094 190.148438 C 151.277344 190.292969 151.324219 190.4375 151.363281 190.589844 C 151.546875 190.507812 151.539062 190.34375 151.574219 190.207031 C 152.328125 187.320312 153.078125 184.429688 153.828125 181.542969 C 154.382812 179.402344 154.941406 177.265625 155.492188 175.125 C 155.691406 174.355469 155.835938 173.574219 156.054688 172.8125 C 157.042969 169.382812 158.050781 165.957031 159.054688 162.527344 C 159.109375 162.347656 159.152344 162.160156 159.226562 161.988281 C 159.441406 161.5 159.847656 161.300781 160.363281 161.289062 C 160.855469 161.28125 161.183594 161.53125 161.375 161.972656 C 161.445312 162.125 161.5 162.289062 161.558594 162.445312 C 162.730469 165.617188 163.902344 168.792969 165.074219 171.964844 C 165.316406 172.617188 165.191406 172.539062 165.910156 172.542969 C 173.179688 172.542969 180.449219 172.542969 187.714844 172.542969 C 187.980469 172.542969 188.246094 172.550781 188.511719 172.558594 C 188.347656 173.253906 188.074219 173.910156 187.796875 174.566406 Z M 187.796875 174.566406 " fill-opacity="1" fill-rule="nonzero"/><g clip-path="url(#509693a8b1)"><path fill="#14a574" d="M 259.875 111.476562 L 259.875 111.457031 C 259.867188 110.523438 259.484375 109.679688 258.871094 109.0625 C 258.25 108.441406 257.394531 108.058594 256.457031 108.058594 L 238.988281 108.058594 L 238.988281 90.589844 C 238.988281 89.652344 238.605469 88.796875 237.984375 88.175781 C 237.371094 87.5625 236.523438 87.179688 235.59375 87.171875 L 235.570312 87.171875 C 234.628906 87.171875 233.777344 87.558594 233.15625 88.175781 C 232.535156 88.796875 232.152344 89.652344 232.152344 90.589844 L 232.152344 108.058594 L 214.683594 108.058594 C 213.746094 108.058594 212.890625 108.441406 212.269531 109.0625 C 211.65625 109.679688 211.273438 110.523438 211.265625 111.457031 L 211.265625 111.476562 C 211.265625 112.417969 211.652344 113.269531 212.269531 113.890625 C 212.890625 114.511719 213.746094 114.894531 214.683594 114.894531 L 232.152344 114.894531 L 232.152344 132.363281 C 232.152344 133.300781 232.535156 134.15625 233.15625 134.777344 C 233.777344 135.398438 234.628906 135.78125 235.570312 135.78125 L 235.59375 135.78125 C 236.523438 135.777344 237.371094 135.390625 237.984375 134.777344 C 238.605469 134.15625 238.988281 133.300781 238.988281 132.363281 L 238.988281 114.894531 L 256.457031 114.894531 C 257.394531 114.894531 258.25 114.511719 258.871094 113.890625 C 259.488281 113.269531 259.875 112.417969 259.875 111.476562 Z M 261.0625 111.730469 C 261 112.902344 260.496094 113.957031 259.714844 114.738281 C 258.878906 115.574219 257.726562 116.089844 256.457031 116.089844 L 240.183594 116.089844 L 240.183594 132.363281 C 240.183594 133.632812 239.664062 134.785156 238.828125 135.621094 C 237.992188 136.457031 236.839844 136.976562 235.570312 136.976562 L 235.324219 136.976562 L 235.316406 136.96875 C 234.148438 136.90625 233.089844 136.402344 232.3125 135.621094 C 231.476562 134.785156 230.957031 133.632812 230.957031 132.363281 L 230.957031 116.089844 L 214.683594 116.089844 C 213.414062 116.089844 212.261719 115.574219 211.425781 114.738281 C 210.644531 113.957031 210.140625 112.902344 210.078125 111.730469 L 210.070312 111.722656 L 210.070312 111.476562 C 210.070312 110.207031 210.589844 109.054688 211.425781 108.21875 C 212.261719 107.382812 213.414062 106.863281 214.683594 106.863281 L 230.957031 106.863281 L 230.957031 90.589844 C 230.957031 89.320312 231.476562 88.167969 232.3125 87.332031 C 233.089844 86.550781 234.148438 86.046875 235.316406 85.984375 L 235.324219 85.976562 L 235.570312 85.976562 C 236.839844 85.976562 237.992188 86.496094 238.828125 87.332031 C 239.664062 88.167969 240.183594 89.320312 240.183594 90.589844 L 240.183594 106.863281 L 256.457031 106.863281 C 257.726562 106.863281 258.878906 107.382812 259.714844 108.21875 C 260.550781 109.054688 261.070312 110.207031 261.070312 111.476562 L 261.070312 111.722656 Z M 261.0625 111.730469 " fill-opacity="1" fill-rule="nonzero"/></g><g fill="#0a2979" fill-opacity="1"><g transform="translate(287.199599, 175.15935)"><g><path d="M 5.738281 0 L 28.203125 0 C 37.902344 0 44.457031 -5.328125 44.457031 -13.386719 C 44.457031 -18.507812 41.792969 -22.605469 37.289062 -24.585938 C 40.90625 -26.703125 43.023438 -30.457031 43.023438 -34.964844 C 43.023438 -42.820312 36.808594 -47.804688 27.113281 -47.804688 L 5.738281 -47.804688 Z M 16.457031 -8.605469 L 16.457031 -20.078125 L 26.566406 -20.078125 C 30.867188 -20.078125 33.328125 -17.960938 33.328125 -14.339844 C 33.328125 -10.722656 30.867188 -8.605469 26.566406 -8.605469 Z M 16.457031 -28.339844 L 16.457031 -39.199219 L 25.472656 -39.199219 C 29.636719 -39.199219 31.960938 -37.289062 31.960938 -33.804688 C 31.960938 -30.320312 29.636719 -28.339844 25.472656 -28.339844 Z M 16.457031 -28.339844 "/></g></g></g><g fill="#0a2979" fill-opacity="1"><g transform="translate(334.249314, 175.15935)"><g><path d="M 5.738281 0 L 16.59375 0 L 16.59375 -47.804688 L 5.738281 -47.804688 Z M 5.738281 0 "/></g></g></g><g fill="#0a2979" fill-opacity="1"><g transform="translate(356.579147, 175.15935)"><g><path d="M 22.398438 0.957031 C 33.734375 0.957031 40.703125 -4.4375 40.703125 -13.453125 C 40.703125 -21.035156 35.714844 -25.539062 23.832031 -28.339844 C 16.527344 -30.046875 14 -31.890625 14 -34.828125 C 14 -37.96875 16.800781 -39.882812 21.375 -39.882812 C 26.359375 -39.882812 29.367188 -37.289062 29.367188 -32.984375 L 39.8125 -32.984375 C 39.8125 -42.613281 32.574219 -48.761719 21.238281 -48.761719 C 10.242188 -48.761719 3.414062 -43.363281 3.414062 -34.625 C 3.414062 -26.839844 8.671875 -22.195312 19.871094 -19.804688 C 26.632812 -18.371094 29.707031 -16.390625 29.707031 -13.042969 C 29.707031 -9.832031 26.839844 -7.988281 22.332031 -7.988281 C 17.074219 -7.988281 13.660156 -10.652344 13.660156 -15.230469 L 3.003906 -15.230469 C 3.003906 -5.328125 10.378906 0.957031 22.398438 0.957031 Z M 22.398438 0.957031 "/></g></g></g><g fill="#0a2979" fill-opacity="1"><g transform="translate(400.351068, 175.15935)"><g><path d="M 35.308594 0 L 46.164062 0 L 46.164062 -47.804688 L 35.308594 -47.804688 L 35.308594 -29.433594 L 16.59375 -29.433594 L 16.59375 -47.804688 L 5.738281 -47.804688 L 5.738281 0 L 16.59375 0 L 16.59375 -19.257812 L 35.308594 -19.257812 Z M 35.308594 0 "/></g></g></g><g fill="#0a2979" fill-opacity="1"><g transform="translate(452.249158, 175.15935)"><g><path d="M 5.738281 0 L 37.902344 0 L 37.902344 -9.21875 L 16.527344 -9.21875 L 16.527344 -19.667969 L 35.308594 -19.667969 L 35.308594 -28.75 L 16.527344 -28.75 L 16.527344 -38.652344 L 37.152344 -38.652344 L 37.152344 -47.804688 L 5.738281 -47.804688 Z M 5.738281 0 "/></g></g></g><g fill="#0a2979" fill-opacity="1"><g transform="translate(493.631058, 175.15935)"><g><path d="M 22.398438 0.957031 C 33.734375 0.957031 40.703125 -4.4375 40.703125 -13.453125 C 40.703125 -21.035156 35.714844 -25.539062 23.832031 -28.339844 C 16.527344 -30.046875 14 -31.890625 14 -34.828125 C 14 -37.96875 16.800781 -39.882812 21.375 -39.882812 C 26.359375 -39.882812 29.367188 -37.289062 29.367188 -32.984375 L 39.8125 -32.984375 C 39.8125 -42.613281 32.574219 -48.761719 21.238281 -48.761719 C 10.242188 -48.761719 3.414062 -43.363281 3.414062 -34.625 C 3.414062 -26.839844 8.671875 -22.195312 19.871094 -19.804688 C 26.632812 -18.371094 29.707031 -16.390625 29.707031 -13.042969 C 29.707031 -9.832031 26.839844 -7.988281 22.332031 -7.988281 C 17.074219 -7.988281 13.660156 -10.652344 13.660156 -15.230469 L 3.003906 -15.230469 C 3.003906 -5.328125 10.378906 0.957031 22.398438 0.957031 Z M 22.398438 0.957031 "/></g></g></g><g fill="#0a2979" fill-opacity="1"><g transform="translate(537.402979, 175.15935)"><g><path d="M 35.308594 0 L 46.164062 0 L 46.164062 -47.804688 L 35.308594 -47.804688 L 35.308594 -29.433594 L 16.59375 -29.433594 L 16.59375 -47.804688 L 5.738281 -47.804688 L 5.738281 0 L 16.59375 0 L 16.59375 -19.257812 L 35.308594 -19.257812 Z M 35.308594 0 "/></g></g></g><g fill="#0a2979" fill-opacity="1"><g transform="translate(589.301069, 175.15935)"><g><path d="M 28.410156 0.957031 C 43.363281 0.957031 53.949219 -9.289062 53.949219 -23.902344 C 53.949219 -38.515625 43.363281 -48.761719 28.410156 -48.761719 C 13.453125 -48.761719 2.9375 -38.515625 2.9375 -23.902344 C 2.9375 -9.289062 13.453125 0.957031 28.410156 0.957031 Z M 14 -23.902344 C 14 -32.507812 19.941406 -38.449219 28.410156 -38.449219 C 36.945312 -38.449219 42.820312 -32.507812 42.820312 -23.902344 C 42.820312 -15.296875 36.945312 -9.355469 28.410156 -9.355469 C 19.941406 -9.355469 14 -15.296875 14 -23.902344 Z M 14 -23.902344 "/></g></g></g><g fill="#0a2979" fill-opacity="1"><g transform="translate(646.184085, 175.15935)"><g><path d="M 28 0.957031 C 43.773438 0.957031 53.949219 -10.722656 52.859375 -27.113281 L 25.882812 -27.113281 L 25.882812 -18.710938 L 41.382812 -18.710938 C 40.019531 -12.90625 35.101562 -9.015625 28.136719 -9.015625 C 19.394531 -9.015625 13.792969 -15.296875 13.792969 -23.902344 C 13.792969 -32.644531 19.601562 -38.789062 28 -38.789062 C 33.328125 -38.789062 37.765625 -36.332031 40.085938 -32.164062 L 51.765625 -32.164062 C 48.898438 -42.203125 39.402344 -48.761719 27.792969 -48.761719 C 13.25 -48.761719 2.9375 -38.449219 2.9375 -23.902344 C 2.9375 -9.289062 13.316406 0.957031 28 0.957031 Z M 28 0.957031 "/></g></g></g><g fill="#0a2979" fill-opacity="1"><g transform="translate(701.906227, 175.15935)"><g><path d="M 28 0.957031 C 43.773438 0.957031 53.949219 -10.722656 52.859375 -27.113281 L 25.882812 -27.113281 L 25.882812 -18.710938 L 41.382812 -18.710938 C 40.019531 -12.90625 35.101562 -9.015625 28.136719 -9.015625 C 19.394531 -9.015625 13.792969 -15.296875 13.792969 -23.902344 C 13.792969 -32.644531 19.601562 -38.789062 28 -38.789062 C 33.328125 -38.789062 37.765625 -36.332031 40.085938 -32.164062 L 51.765625 -32.164062 C 48.898438 -42.203125 39.402344 -48.761719 27.792969 -48.761719 C 13.25 -48.761719 2.9375 -38.449219 2.9375 -23.902344 C 2.9375 -9.289062 13.316406 0.957031 28 0.957031 Z M 28 0.957031 "/></g></g></g><g fill="#0a2979" fill-opacity="1"><g transform="translate(757.628341, 175.15935)"><g><path d="M 28.410156 0.957031 C 43.363281 0.957031 53.949219 -9.289062 53.949219 -23.902344 C 53.949219 -38.515625 43.363281 -48.761719 28.410156 -48.761719 C 13.453125 -48.761719 2.9375 -38.515625 2.9375 -23.902344 C 2.9375 -9.289062 13.453125 0.957031 28.410156 0.957031 Z M 14 -23.902344 C 14 -32.507812 19.941406 -38.449219 28.410156 -38.449219 C 36.945312 -38.449219 42.820312 -32.507812 42.820312 -23.902344 C 42.820312 -15.296875 36.945312 -9.355469 28.410156 -9.355469 C 19.941406 -9.355469 14 -15.296875 14 -23.902344 Z M 14 -23.902344 "/></g></g></g><g fill="#14a574" fill-opacity="1"><g transform="translate(593.805255, 215.497835)"><g><path d="M 24.015625 -27.265625 L 24.015625 0 L 20.46875 0 L 20.46875 -12.359375 L 6.578125 -12.359375 L 6.578125 0 L 3.015625 0 L 3.015625 -27.265625 L 6.578125 -27.265625 L 6.578125 -15.296875 L 20.46875 -15.296875 L 20.46875 -27.265625 Z M 24.015625 -27.265625 "/></g></g></g><g fill="#14a574" fill-opacity="1"><g transform="translate(620.861861, 215.497835)"><g><path d="M 22.578125 -11.546875 C 22.578125 -10.867188 22.535156 -10.148438 22.453125 -9.390625 L 5.328125 -9.390625 C 5.453125 -7.273438 6.171875 -5.625 7.484375 -4.4375 C 8.804688 -3.25 10.40625 -2.65625 12.28125 -2.65625 C 13.820312 -2.65625 15.109375 -3.015625 16.140625 -3.734375 C 17.171875 -4.453125 17.894531 -5.410156 18.3125 -6.609375 L 22.140625 -6.609375 C 21.566406 -4.546875 20.421875 -2.867188 18.703125 -1.578125 C 16.984375 -0.285156 14.84375 0.359375 12.28125 0.359375 C 10.25 0.359375 8.429688 -0.0976562 6.828125 -1.015625 C 5.222656 -1.929688 3.960938 -3.226562 3.046875 -4.90625 C 2.140625 -6.59375 1.6875 -8.546875 1.6875 -10.765625 C 1.6875 -12.972656 2.128906 -14.910156 3.015625 -16.578125 C 3.898438 -18.253906 5.144531 -19.539062 6.75 -20.4375 C 8.351562 -21.34375 10.195312 -21.796875 12.28125 -21.796875 C 14.320312 -21.796875 16.125 -21.347656 17.6875 -20.453125 C 19.25 -19.566406 20.453125 -18.347656 21.296875 -16.796875 C 22.148438 -15.242188 22.578125 -13.492188 22.578125 -11.546875 Z M 18.890625 -12.28125 C 18.890625 -13.632812 18.585938 -14.800781 17.984375 -15.78125 C 17.390625 -16.757812 16.578125 -17.503906 15.546875 -18.015625 C 14.515625 -18.523438 13.375 -18.78125 12.125 -18.78125 C 10.320312 -18.78125 8.789062 -18.207031 7.53125 -17.0625 C 6.269531 -15.914062 5.546875 -14.320312 5.359375 -12.28125 Z M 18.890625 -12.28125 "/></g></g></g><g fill="#14a574" fill-opacity="1"><g transform="translate(645.103319, 215.497835)"><g><path d="M 1.6875 -10.796875 C 1.6875 -12.984375 2.128906 -14.90625 3.015625 -16.5625 C 3.898438 -18.21875 5.117188 -19.503906 6.671875 -20.421875 C 8.222656 -21.335938 9.953125 -21.796875 11.859375 -21.796875 C 13.734375 -21.796875 15.359375 -21.390625 16.734375 -20.578125 C 18.117188 -19.765625 19.15625 -18.75 19.84375 -17.53125 L 19.84375 -21.4375 L 23.4375 -21.4375 L 23.4375 0 L 19.84375 0 L 19.84375 -3.984375 C 19.132812 -2.734375 18.082031 -1.695312 16.6875 -0.875 C 15.289062 -0.0507812 13.664062 0.359375 11.8125 0.359375 C 9.90625 0.359375 8.179688 -0.109375 6.640625 -1.046875 C 5.109375 -1.992188 3.898438 -3.3125 3.015625 -5 C 2.128906 -6.695312 1.6875 -8.628906 1.6875 -10.796875 Z M 19.84375 -10.765625 C 19.84375 -12.378906 19.515625 -13.785156 18.859375 -14.984375 C 18.203125 -16.179688 17.316406 -17.097656 16.203125 -17.734375 C 15.097656 -18.378906 13.882812 -18.703125 12.5625 -18.703125 C 11.226562 -18.703125 10.015625 -18.390625 8.921875 -17.765625 C 7.828125 -17.140625 6.953125 -16.222656 6.296875 -15.015625 C 5.648438 -13.816406 5.328125 -12.410156 5.328125 -10.796875 C 5.328125 -9.148438 5.648438 -7.71875 6.296875 -6.5 C 6.953125 -5.289062 7.828125 -4.367188 8.921875 -3.734375 C 10.015625 -3.097656 11.226562 -2.78125 12.5625 -2.78125 C 13.882812 -2.78125 15.097656 -3.097656 16.203125 -3.734375 C 17.316406 -4.367188 18.203125 -5.289062 18.859375 -6.5 C 19.515625 -7.71875 19.84375 -9.140625 19.84375 -10.765625 Z M 19.84375 -10.765625 "/></g></g></g><g fill="#14a574" fill-opacity="1"><g transform="translate(671.534344, 215.497835)"><g><path d="M 6.578125 -28.953125 L 6.578125 0 L 3.015625 0 L 3.015625 -28.953125 Z M 6.578125 -28.953125 "/></g></g></g><g fill="#14a574" fill-opacity="1"><g transform="translate(681.152728, 215.497835)"><g><path d="M 7.359375 -18.5 L 7.359375 -5.875 C 7.359375 -4.820312 7.578125 -4.082031 8.015625 -3.65625 C 8.460938 -3.226562 9.234375 -3.015625 10.328125 -3.015625 L 12.953125 -3.015625 L 12.953125 0 L 9.734375 0 C 7.753906 0 6.269531 -0.453125 5.28125 -1.359375 C 4.289062 -2.273438 3.796875 -3.78125 3.796875 -5.875 L 3.796875 -18.5 L 1.015625 -18.5 L 1.015625 -21.4375 L 3.796875 -21.4375 L 3.796875 -26.84375 L 7.359375 -26.84375 L 7.359375 -21.4375 L 12.953125 -21.4375 L 12.953125 -18.5 Z M 7.359375 -18.5 "/></g></g></g><g fill="#14a574" fill-opacity="1"><g transform="translate(695.384806, 215.497835)"><g><path d="M 13.65625 -21.828125 C 15.269531 -21.828125 16.726562 -21.484375 18.03125 -20.796875 C 19.34375 -20.109375 20.367188 -19.070312 21.109375 -17.6875 C 21.847656 -16.300781 22.21875 -14.617188 22.21875 -12.640625 L 22.21875 0 L 18.703125 0 L 18.703125 -12.125 C 18.703125 -14.269531 18.164062 -15.90625 17.09375 -17.03125 C 16.03125 -18.164062 14.570312 -18.734375 12.71875 -18.734375 C 10.84375 -18.734375 9.347656 -18.144531 8.234375 -16.96875 C 7.128906 -15.800781 6.578125 -14.097656 6.578125 -11.859375 L 6.578125 0 L 3.015625 0 L 3.015625 -28.953125 L 6.578125 -28.953125 L 6.578125 -18.390625 C 7.273438 -19.484375 8.242188 -20.328125 9.484375 -20.921875 C 10.722656 -21.523438 12.113281 -21.828125 13.65625 -21.828125 Z M 13.65625 -21.828125 "/></g></g></g><g fill="#14a574" fill-opacity="1"><g transform="translate(720.408257, 215.497835)"><g><path d="M 1.6875 -10.765625 C 1.6875 -12.972656 2.128906 -14.90625 3.015625 -16.5625 C 3.898438 -18.21875 5.128906 -19.503906 6.703125 -20.421875 C 8.285156 -21.335938 10.09375 -21.796875 12.125 -21.796875 C 14.757812 -21.796875 16.929688 -21.15625 18.640625 -19.875 C 20.347656 -18.59375 21.476562 -16.816406 22.03125 -14.546875 L 18.1875 -14.546875 C 17.820312 -15.859375 17.109375 -16.890625 16.046875 -17.640625 C 14.992188 -18.398438 13.6875 -18.78125 12.125 -18.78125 C 10.09375 -18.78125 8.453125 -18.082031 7.203125 -16.6875 C 5.953125 -15.289062 5.328125 -13.316406 5.328125 -10.765625 C 5.328125 -8.179688 5.953125 -6.179688 7.203125 -4.765625 C 8.453125 -3.359375 10.09375 -2.65625 12.125 -2.65625 C 13.6875 -2.65625 14.988281 -3.019531 16.03125 -3.75 C 17.082031 -4.476562 17.800781 -5.523438 18.1875 -6.890625 L 22.03125 -6.890625 C 21.457031 -4.691406 20.304688 -2.929688 18.578125 -1.609375 C 16.859375 -0.296875 14.707031 0.359375 12.125 0.359375 C 10.09375 0.359375 8.285156 -0.0976562 6.703125 -1.015625 C 5.128906 -1.929688 3.898438 -3.222656 3.015625 -4.890625 C 2.128906 -6.554688 1.6875 -8.515625 1.6875 -10.765625 Z M 1.6875 -10.765625 "/></g></g></g><g fill="#14a574" fill-opacity="1"><g transform="translate(744.141439, 215.497835)"><g><path d="M 1.6875 -10.796875 C 1.6875 -12.984375 2.128906 -14.90625 3.015625 -16.5625 C 3.898438 -18.21875 5.117188 -19.503906 6.671875 -20.421875 C 8.222656 -21.335938 9.953125 -21.796875 11.859375 -21.796875 C 13.734375 -21.796875 15.359375 -21.390625 16.734375 -20.578125 C 18.117188 -19.765625 19.15625 -18.75 19.84375 -17.53125 L 19.84375 -21.4375 L 23.4375 -21.4375 L 23.4375 0 L 19.84375 0 L 19.84375 -3.984375 C 19.132812 -2.734375 18.082031 -1.695312 16.6875 -0.875 C 15.289062 -0.0507812 13.664062 0.359375 11.8125 0.359375 C 9.90625 0.359375 8.179688 -0.109375 6.640625 -1.046875 C 5.109375 -1.992188 3.898438 -3.3125 3.015625 -5 C 2.128906 -6.695312 1.6875 -8.628906 1.6875 -10.796875 Z M 19.84375 -10.765625 C 19.84375 -12.378906 19.515625 -13.785156 18.859375 -14.984375 C 18.203125 -16.179688 17.316406 -17.097656 16.203125 -17.734375 C 15.097656 -18.378906 13.882812 -18.703125 12.5625 -18.703125 C 11.226562 -18.703125 10.015625 -18.390625 8.921875 -17.765625 C 7.828125 -17.140625 6.953125 -16.222656 6.296875 -15.015625 C 5.648438 -13.816406 5.328125 -12.410156 5.328125 -10.796875 C 5.328125 -9.148438 5.648438 -7.71875 6.296875 -6.5 C 6.953125 -5.289062 7.828125 -4.367188 8.921875 -3.734375 C 10.015625 -3.097656 11.226562 -2.78125 12.5625 -2.78125 C 13.882812 -2.78125 15.097656 -3.097656 16.203125 -3.734375 C 17.316406 -4.367188 18.203125 -5.289062 18.859375 -6.5 C 19.515625 -7.71875 19.84375 -9.140625 19.84375 -10.765625 Z M 19.84375 -10.765625 "/></g></g></g><g fill="#14a574" fill-opacity="1"><g transform="translate(770.572463, 215.497835)"><g><path d="M 6.578125 -17.953125 C 7.203125 -19.179688 8.09375 -20.132812 9.25 -20.8125 C 10.414062 -21.488281 11.832031 -21.828125 13.5 -21.828125 L 13.5 -18.15625 L 12.5625 -18.15625 C 8.570312 -18.15625 6.578125 -15.988281 6.578125 -11.65625 L 6.578125 0 L 3.015625 0 L 3.015625 -21.4375 L 6.578125 -21.4375 Z M 6.578125 -17.953125 "/></g></g></g><g fill="#14a574" fill-opacity="1"><g transform="translate(785.156452, 215.497835)"><g><path d="M 22.578125 -11.546875 C 22.578125 -10.867188 22.535156 -10.148438 22.453125 -9.390625 L 5.328125 -9.390625 C 5.453125 -7.273438 6.171875 -5.625 7.484375 -4.4375 C 8.804688 -3.25 10.40625 -2.65625 12.28125 -2.65625 C 13.820312 -2.65625 15.109375 -3.015625 16.140625 -3.734375 C 17.171875 -4.453125 17.894531 -5.410156 18.3125 -6.609375 L 22.140625 -6.609375 C 21.566406 -4.546875 20.421875 -2.867188 18.703125 -1.578125 C 16.984375 -0.285156 14.84375 0.359375 12.28125 0.359375 C 10.25 0.359375 8.429688 -0.0976562 6.828125 -1.015625 C 5.222656 -1.929688 3.960938 -3.226562 3.046875 -4.90625 C 2.140625 -6.59375 1.6875 -8.546875 1.6875 -10.765625 C 1.6875 -12.972656 2.128906 -14.910156 3.015625 -16.578125 C 3.898438 -18.253906 5.144531 -19.539062 6.75 -20.4375 C 8.351562 -21.34375 10.195312 -21.796875 12.28125 -21.796875 C 14.320312 -21.796875 16.125 -21.347656 17.6875 -20.453125 C 19.25 -19.566406 20.453125 -18.347656 21.296875 -16.796875 C 22.148438 -15.242188 22.578125 -13.492188 22.578125 -11.546875 Z M 18.890625 -12.28125 C 18.890625 -13.632812 18.585938 -14.800781 17.984375 -15.78125 C 17.390625 -16.757812 16.578125 -17.503906 15.546875 -18.015625 C 14.515625 -18.523438 13.375 -18.78125 12.125 -18.78125 C 10.320312 -18.78125 8.789062 -18.207031 7.53125 -17.0625 C 6.269531 -15.914062 5.546875 -14.320312 5.359375 -12.28125 Z M 18.890625 -12.28125 "/></g></g></g></svg>