<svg xmlns="http://www.w3.org/2000/svg" xmlns:xlink="http://www.w3.org/1999/xlink" width="1200" zoomAndPan="magnify" viewBox="0 0 900 374.999991" height="500" preserveAspectRatio="xMidYMid meet" version="1.0"><defs><g/><clipPath id="f96c603cea"><path d="M 37.5 66.960938 L 236 66.960938 L 236 307.710938 L 37.5 307.710938 Z M 37.5 66.960938 " clip-rule="nonzero"/></clipPath><clipPath id="ea47aaabc9"><path d="M 108 86 L 273.75 86 L 273.75 288 L 108 288 Z M 108 86 " clip-rule="nonzero"/></clipPath><clipPath id="c067ae2a83"><path d="M 99.546875 136 L 212 136 L 212 239.382812 L 99.546875 239.382812 Z M 99.546875 136 " clip-rule="nonzero"/></clipPath><clipPath id="f023dd6afd"><path d="M 237.828125 66.960938 L 306.828125 66.960938 L 306.828125 135.960938 L 237.828125 135.960938 Z M 237.828125 66.960938 " clip-rule="nonzero"/></clipPath></defs><g clip-path="url(#f96c603cea)"><path fill="#0a2979" d="M 174.050781 298.058594 C 112.847656 298.058594 63.226562 248.488281 63.226562 187.335938 C 63.226562 126.1875 112.847656 76.617188 174.050781 76.617188 C 196.636719 76.617188 217.644531 83.367188 235.164062 94.960938 C 214.257812 77.5 187.335938 66.984375 157.949219 66.984375 C 91.421875 66.984375 37.488281 120.867188 37.488281 187.335938 C 37.488281 253.804688 91.421875 307.6875 157.949219 307.6875 C 187.335938 307.6875 214.257812 297.175781 235.167969 279.714844 C 217.644531 291.304688 196.640625 298.058594 174.050781 298.058594 Z M 174.050781 298.058594 " fill-opacity="1" fill-rule="nonzero"/></g><g clip-path="url(#ea47aaabc9)"><path fill="#14a574" d="M 159.625 94.816406 C 210.765625 94.816406 252.226562 136.238281 252.226562 187.335938 C 252.226562 238.433594 210.765625 279.855469 159.625 279.855469 C 140.75 279.855469 123.195312 274.214844 108.558594 264.527344 C 126.027344 279.121094 148.527344 287.902344 173.078125 287.902344 C 228.671875 287.902344 273.734375 242.878906 273.734375 187.339844 C 273.734375 131.796875 228.667969 86.773438 173.074219 86.773438 C 148.523438 86.773438 126.027344 95.554688 108.554688 110.148438 C 123.195312 100.460938 140.75 94.816406 159.625 94.816406 Z M 159.625 94.816406 " fill-opacity="1" fill-rule="nonzero"/></g><g clip-path="url(#c067ae2a83)"><path fill="#0a2979" d="M 211.171875 161.953125 C 210.398438 157.90625 209.019531 154.09375 206.839844 150.585938 C 203.941406 145.910156 200.097656 142.253906 195.136719 139.832031 C 190.558594 137.589844 185.695312 136.734375 180.628906 137.023438 C 176.539062 137.253906 172.632812 138.246094 168.890625 139.90625 C 163.546875 142.273438 159.265625 145.871094 156.179688 150.855469 C 156.125 150.945312 156.078125 151.035156 156.015625 151.117188 C 155.9375 151.210938 155.835938 151.226562 155.761719 151.121094 C 155.65625 150.976562 155.566406 150.816406 155.46875 150.664062 C 153.707031 147.929688 151.609375 145.496094 149.007812 143.519531 C 142.34375 138.453125 132.882812 135.886719 124.203125 137.402344 C 118.296875 138.4375 113.226562 141.058594 109.023438 145.339844 C 105.671875 148.753906 103.304688 152.773438 101.804688 157.304688 C 99.96875 162.835938 99.535156 168.515625 100.160156 174.285156 C 100.515625 177.582031 101.25 180.800781 102.269531 183.957031 C 102.355469 184.222656 102.390625 184.511719 102.578125 184.738281 C 102.800781 185.691406 103.1875 186.582031 103.542969 187.488281 C 103.601562 187.65625 103.652344 187.828125 103.71875 187.996094 C 105.488281 192.394531 107.730469 196.539062 110.382812 200.46875 C 113.867188 205.628906 117.980469 210.242188 122.519531 214.488281 C 126.332031 218.054688 130.367188 221.351562 134.488281 224.546875 C 140.976562 229.582031 147.859375 234.0625 154.507812 238.871094 C 155.066406 239.277344 155.679688 239.375 156.34375 239.277344 C 156.769531 239.214844 157.113281 238.984375 157.445312 238.738281 C 159.074219 237.511719 160.761719 236.367188 162.4375 235.207031 C 165.515625 233.078125 168.59375 230.949219 171.625 228.753906 C 177.042969 224.832031 182.320312 220.734375 187.304688 216.269531 C 190.882812 213.058594 194.265625 209.660156 197.3125 205.929688 C 201.648438 200.621094 205.222656 194.847656 207.84375 188.5 C 207.980469 188.167969 208.089844 187.824219 208.214844 187.488281 C 208.589844 186.59375 208.964844 185.695312 209.1875 184.746094 C 209.234375 184.65625 209.296875 184.570312 209.328125 184.476562 C 210.613281 180.640625 211.457031 176.710938 211.761719 172.675781 C 212.03125 169.078125 211.847656 165.5 211.171875 161.953125 Z M 211.171875 161.953125 " fill-opacity="1" fill-rule="nonzero"/></g><path fill="#fefbfc" d="M 208.214844 187.488281 C 207.90625 187.492188 207.59375 187.503906 207.285156 187.503906 C 197.0625 187.503906 186.839844 187.503906 176.617188 187.503906 C 176.386719 187.503906 176.152344 187.5 175.921875 187.496094 C 175.6875 187.492188 175.535156 187.363281 175.445312 187.160156 C 175.371094 186.996094 175.316406 186.824219 175.253906 186.652344 C 173.902344 182.96875 172.554688 179.285156 171.203125 175.605469 C 171.117188 175.375 171.097656 175.097656 170.84375 174.941406 C 170.675781 175.148438 170.640625 175.375 170.578125 175.589844 C 169.753906 178.414062 168.90625 181.234375 168.117188 184.066406 C 167.457031 186.453125 166.867188 188.863281 166.246094 191.261719 C 164.191406 199.179688 162.140625 207.097656 160.082031 215.019531 C 160.019531 215.265625 159.964844 215.527344 159.855469 215.757812 C 159.59375 216.316406 159.140625 216.625 158.519531 216.664062 C 157.910156 216.703125 157.402344 216.390625 157.164062 215.828125 C 157.074219 215.617188 157.019531 215.386719 156.96875 215.160156 C 155.355469 208.011719 153.75 200.859375 152.136719 193.707031 C 151.507812 190.914062 150.867188 188.121094 150.238281 185.324219 C 148.859375 179.207031 147.488281 173.089844 146.113281 166.96875 C 146.058594 166.71875 146.027344 166.460938 145.878906 166.21875 C 145.625 166.417969 145.613281 166.722656 145.527344 166.980469 C 144.523438 170.046875 143.527344 173.113281 142.535156 176.183594 C 141.421875 179.621094 140.3125 183.058594 139.203125 186.496094 C 138.960938 187.242188 138.816406 187.351562 138.050781 187.355469 C 138 187.359375 137.945312 187.355469 137.894531 187.355469 C 137.449219 187.382812 137.167969 187.191406 137.019531 186.761719 C 136.78125 186.078125 136.511719 185.40625 136.265625 184.726562 C 135.546875 182.738281 134.835938 180.742188 134.121094 178.753906 C 134.078125 178.632812 134.015625 178.519531 133.945312 178.410156 C 133.9375 178.394531 133.828125 178.402344 133.820312 178.421875 C 133.730469 178.636719 133.640625 178.851562 133.574219 179.070312 C 132.820312 181.566406 132.074219 184.0625 131.316406 186.558594 C 131.03125 187.503906 131.019531 187.503906 130.027344 187.503906 C 121.457031 187.503906 112.886719 187.503906 104.316406 187.503906 C 104.058594 187.503906 103.800781 187.492188 103.542969 187.488281 C 103.1875 186.582031 102.800781 185.691406 102.578125 184.738281 C 102.914062 184.734375 103.25 184.726562 103.585938 184.726562 C 111.742188 184.722656 119.902344 184.726562 128.058594 184.722656 C 129.15625 184.722656 128.945312 184.855469 129.25 183.84375 C 130.171875 180.78125 131.089844 177.714844 132.011719 174.648438 C 132.085938 174.402344 132.152344 174.152344 132.253906 173.914062 C 132.5625 173.191406 133.179688 172.882812 133.953125 173.066406 C 134.699219 173.246094 135.242188 173.648438 135.511719 174.417969 C 136.191406 176.367188 136.898438 178.304688 137.609375 180.246094 C 137.703125 180.503906 137.722656 180.804688 137.984375 180.988281 C 138.199219 180.738281 138.242188 180.417969 138.335938 180.128906 C 139.992188 175.050781 141.644531 169.96875 143.296875 164.890625 C 143.71875 163.589844 144.136719 162.289062 144.5625 160.988281 C 144.632812 160.765625 144.703125 160.542969 144.800781 160.332031 C 145.050781 159.792969 145.488281 159.480469 146.078125 159.484375 C 146.664062 159.488281 147.125 159.773438 147.382812 160.308594 C 147.503906 160.558594 147.574219 160.839844 147.636719 161.117188 C 148.890625 166.679688 150.136719 172.246094 151.394531 177.808594 C 152.089844 180.882812 152.8125 183.945312 153.503906 187.019531 C 154.40625 191.019531 155.285156 195.027344 156.179688 199.035156 C 156.902344 202.285156 157.636719 205.53125 158.371094 208.777344 C 158.414062 208.980469 158.476562 209.175781 158.535156 209.382812 C 158.785156 209.273438 158.769531 209.046875 158.820312 208.859375 C 159.84375 204.914062 160.867188 200.96875 161.894531 197.019531 C 162.652344 194.097656 163.414062 191.175781 164.164062 188.25 C 164.433594 187.203125 164.628906 186.132812 164.929688 185.09375 C 166.277344 180.40625 167.652344 175.726562 169.019531 171.042969 C 169.09375 170.796875 169.152344 170.542969 169.257812 170.308594 C 169.550781 169.636719 170.101562 169.363281 170.804688 169.351562 C 171.476562 169.339844 171.921875 169.679688 172.183594 170.28125 C 172.277344 170.492188 172.355469 170.710938 172.4375 170.929688 C 174.035156 175.265625 175.628906 179.601562 177.230469 183.933594 C 177.5625 184.828125 177.390625 184.722656 178.367188 184.722656 C 188.28125 184.726562 198.195312 184.722656 208.105469 184.726562 C 208.46875 184.726562 208.828125 184.738281 209.1875 184.746094 C 208.964844 185.695312 208.589844 186.59375 208.214844 187.488281 Z M 208.214844 187.488281 " fill-opacity="1" fill-rule="nonzero"/><g clip-path="url(#f023dd6afd)"><path fill="#14a574" d="M 305.210938 101.460938 L 305.210938 101.433594 C 305.203125 100.171875 304.683594 99.027344 303.851562 98.195312 C 303.015625 97.355469 301.859375 96.835938 300.585938 96.835938 L 276.957031 96.835938 L 276.957031 73.203125 C 276.957031 71.933594 276.433594 70.777344 275.59375 69.9375 C 274.761719 69.105469 273.617188 68.585938 272.359375 68.578125 L 272.328125 68.578125 C 271.058594 68.578125 269.902344 69.101562 269.0625 69.9375 C 268.226562 70.777344 267.703125 71.933594 267.703125 73.203125 L 267.703125 96.835938 L 244.070312 96.835938 C 242.800781 96.835938 241.644531 97.355469 240.804688 98.195312 C 239.972656 99.027344 239.453125 100.171875 239.445312 101.433594 L 239.445312 101.460938 C 239.445312 102.734375 239.96875 103.890625 240.804688 104.726562 C 241.644531 105.566406 242.800781 106.085938 244.070312 106.085938 L 267.703125 106.085938 L 267.703125 129.71875 C 267.703125 130.992188 268.226562 132.148438 269.0625 132.984375 C 269.902344 133.824219 271.058594 134.34375 272.328125 134.34375 L 272.359375 134.34375 C 273.617188 134.335938 274.761719 133.816406 275.59375 132.984375 C 276.433594 132.148438 276.957031 130.992188 276.957031 129.71875 L 276.957031 106.085938 L 300.585938 106.085938 C 301.859375 106.085938 303.015625 105.566406 303.851562 104.726562 C 304.691406 103.890625 305.210938 102.734375 305.210938 101.460938 Z M 306.820312 101.804688 C 306.734375 103.386719 306.050781 104.816406 304.996094 105.871094 C 303.867188 107.003906 302.304688 107.703125 300.585938 107.703125 L 278.574219 107.703125 L 278.574219 129.71875 C 278.574219 131.4375 277.871094 132.996094 276.738281 134.128906 C 275.609375 135.257812 274.046875 135.960938 272.328125 135.960938 L 271.996094 135.960938 L 271.984375 135.953125 C 270.402344 135.863281 268.976562 135.183594 267.917969 134.128906 C 266.789062 132.996094 266.085938 131.4375 266.085938 129.71875 L 266.085938 107.703125 L 244.070312 107.703125 C 242.355469 107.703125 240.792969 107.003906 239.664062 105.871094 C 238.609375 104.816406 237.925781 103.386719 237.839844 101.804688 L 237.828125 101.796875 L 237.828125 101.460938 C 237.828125 99.742188 238.53125 98.183594 239.664062 97.050781 C 240.792969 95.921875 242.355469 95.21875 244.070312 95.21875 L 266.085938 95.21875 L 266.085938 73.203125 C 266.085938 71.488281 266.789062 69.925781 267.917969 68.792969 C 268.976562 67.738281 270.402344 67.058594 271.984375 66.972656 L 271.996094 66.960938 L 272.328125 66.960938 C 274.046875 66.960938 275.609375 67.664062 276.738281 68.792969 C 277.871094 69.925781 278.574219 71.488281 278.574219 73.203125 L 278.574219 95.21875 L 300.585938 95.21875 C 302.304688 95.21875 303.867188 95.921875 304.996094 97.050781 C 306.128906 98.183594 306.828125 99.742188 306.828125 101.460938 L 306.828125 101.796875 Z M 306.820312 101.804688 " fill-opacity="1" fill-rule="nonzero"/></g><g fill="#0a2979" fill-opacity="1"><g transform="translate(329.780739, 173.630115)"><g><path d="M 5.78125 0 L 28.433594 0 C 38.210938 0 44.820312 -5.371094 44.820312 -13.492188 C 44.820312 -18.65625 42.132812 -22.789062 37.589844 -24.785156 C 41.238281 -26.917969 43.375 -30.707031 43.375 -35.25 C 43.375 -43.167969 37.109375 -48.191406 27.332031 -48.191406 L 5.78125 -48.191406 Z M 16.59375 -8.675781 L 16.59375 -20.242188 L 26.78125 -20.242188 C 31.117188 -20.242188 33.597656 -18.105469 33.597656 -14.457031 C 33.597656 -10.808594 31.117188 -8.675781 26.78125 -8.675781 Z M 16.59375 -28.570312 L 16.59375 -39.519531 L 25.679688 -39.519531 C 29.878906 -39.519531 32.21875 -37.589844 32.21875 -34.078125 C 32.21875 -30.566406 29.878906 -28.570312 25.679688 -28.570312 Z M 16.59375 -28.570312 "/></g></g></g><g fill="#0a2979" fill-opacity="1"><g transform="translate(377.21277, 173.630115)"><g><path d="M 5.78125 0 L 16.730469 0 L 16.730469 -48.191406 L 5.78125 -48.191406 Z M 5.78125 0 "/></g></g></g><g fill="#0a2979" fill-opacity="1"><g transform="translate(399.72405, 173.630115)"><g><path d="M 22.582031 0.964844 C 34.011719 0.964844 41.03125 -4.476562 41.03125 -13.5625 C 41.03125 -21.203125 36.007812 -25.75 24.027344 -28.570312 C 16.660156 -30.292969 14.113281 -32.152344 14.113281 -35.113281 C 14.113281 -38.277344 16.9375 -40.207031 21.550781 -40.207031 C 26.574219 -40.207031 29.605469 -37.589844 29.605469 -33.253906 L 40.136719 -33.253906 C 40.136719 -42.960938 32.839844 -49.15625 21.410156 -49.15625 C 10.328125 -49.15625 3.441406 -43.71875 3.441406 -34.90625 C 3.441406 -27.054688 8.742188 -22.375 20.035156 -19.964844 C 26.851562 -18.519531 29.949219 -16.523438 29.949219 -13.148438 C 29.949219 -9.914062 27.054688 -8.054688 22.511719 -8.054688 C 17.210938 -8.054688 13.769531 -10.738281 13.769531 -15.351562 L 3.027344 -15.351562 C 3.027344 -5.371094 10.464844 0.964844 22.582031 0.964844 Z M 22.582031 0.964844 "/></g></g></g><g fill="#0a2979" fill-opacity="1"><g transform="translate(443.851653, 173.630115)"><g><path d="M 35.59375 0 L 46.539062 0 L 46.539062 -48.191406 L 35.59375 -48.191406 L 35.59375 -29.671875 L 16.730469 -29.671875 L 16.730469 -48.191406 L 5.78125 -48.191406 L 5.78125 0 L 16.730469 0 L 16.730469 -19.414062 L 35.59375 -19.414062 Z M 35.59375 0 "/></g></g></g><g fill="#0a2979" fill-opacity="1"><g transform="translate(496.171455, 173.630115)"><g><path d="M 5.78125 0 L 38.210938 0 L 38.210938 -9.292969 L 16.660156 -9.292969 L 16.660156 -19.828125 L 35.59375 -19.828125 L 35.59375 -28.984375 L 16.660156 -28.984375 L 16.660156 -38.96875 L 37.453125 -38.96875 L 37.453125 -48.191406 L 5.78125 -48.191406 Z M 5.78125 0 "/></g></g></g><g fill="#0a2979" fill-opacity="1"><g transform="translate(537.889615, 173.630115)"><g><path d="M 22.582031 0.964844 C 34.011719 0.964844 41.03125 -4.476562 41.03125 -13.5625 C 41.03125 -21.203125 36.007812 -25.75 24.027344 -28.570312 C 16.660156 -30.292969 14.113281 -32.152344 14.113281 -35.113281 C 14.113281 -38.277344 16.9375 -40.207031 21.550781 -40.207031 C 26.574219 -40.207031 29.605469 -37.589844 29.605469 -33.253906 L 40.136719 -33.253906 C 40.136719 -42.960938 32.839844 -49.15625 21.410156 -49.15625 C 10.328125 -49.15625 3.441406 -43.71875 3.441406 -34.90625 C 3.441406 -27.054688 8.742188 -22.375 20.035156 -19.964844 C 26.851562 -18.519531 29.949219 -16.523438 29.949219 -13.148438 C 29.949219 -9.914062 27.054688 -8.054688 22.511719 -8.054688 C 17.210938 -8.054688 13.769531 -10.738281 13.769531 -15.351562 L 3.027344 -15.351562 C 3.027344 -5.371094 10.464844 0.964844 22.582031 0.964844 Z M 22.582031 0.964844 "/></g></g></g><g fill="#0a2979" fill-opacity="1"><g transform="translate(582.017218, 173.630115)"><g><path d="M 35.59375 0 L 46.539062 0 L 46.539062 -48.191406 L 35.59375 -48.191406 L 35.59375 -29.671875 L 16.730469 -29.671875 L 16.730469 -48.191406 L 5.78125 -48.191406 L 5.78125 0 L 16.730469 0 L 16.730469 -19.414062 L 35.59375 -19.414062 Z M 35.59375 0 "/></g></g></g><g fill="#0a2979" fill-opacity="1"><g transform="translate(634.33702, 173.630115)"><g><path d="M 28.640625 0.964844 C 43.71875 0.964844 54.386719 -9.363281 54.386719 -24.097656 C 54.386719 -38.828125 43.71875 -49.15625 28.640625 -49.15625 C 13.5625 -49.15625 2.960938 -38.828125 2.960938 -24.097656 C 2.960938 -9.363281 13.5625 0.964844 28.640625 0.964844 Z M 14.113281 -24.097656 C 14.113281 -32.769531 20.101562 -38.761719 28.640625 -38.761719 C 37.246094 -38.761719 43.167969 -32.769531 43.167969 -24.097656 C 43.167969 -15.421875 37.246094 -9.433594 28.640625 -9.433594 C 20.101562 -9.433594 14.113281 -15.421875 14.113281 -24.097656 Z M 14.113281 -24.097656 "/></g></g></g><g fill="#0a2979" fill-opacity="1"><g transform="translate(691.682255, 173.630115)"><g><path d="M 28.226562 0.964844 C 44.128906 0.964844 54.386719 -10.808594 53.285156 -27.332031 L 26.09375 -27.332031 L 26.09375 -18.863281 L 41.722656 -18.863281 C 40.34375 -13.011719 35.386719 -9.085938 28.363281 -9.085938 C 19.550781 -9.085938 13.90625 -15.421875 13.90625 -24.097656 C 13.90625 -32.910156 19.757812 -39.105469 28.226562 -39.105469 C 33.597656 -39.105469 38.070312 -36.625 40.414062 -32.425781 L 52.183594 -32.425781 C 49.292969 -42.546875 39.722656 -49.15625 28.019531 -49.15625 C 13.355469 -49.15625 2.960938 -38.761719 2.960938 -24.097656 C 2.960938 -9.363281 13.425781 0.964844 28.226562 0.964844 Z M 28.226562 0.964844 "/></g></g></g><g fill="#0a2979" fill-opacity="1"><g transform="translate(747.857184, 173.630115)"><g><path d="M 28.226562 0.964844 C 44.128906 0.964844 54.386719 -10.808594 53.285156 -27.332031 L 26.09375 -27.332031 L 26.09375 -18.863281 L 41.722656 -18.863281 C 40.34375 -13.011719 35.386719 -9.085938 28.363281 -9.085938 C 19.550781 -9.085938 13.90625 -15.421875 13.90625 -24.097656 C 13.90625 -32.910156 19.757812 -39.105469 28.226562 -39.105469 C 33.597656 -39.105469 38.070312 -36.625 40.414062 -32.425781 L 52.183594 -32.425781 C 49.292969 -42.546875 39.722656 -49.15625 28.019531 -49.15625 C 13.355469 -49.15625 2.960938 -38.761719 2.960938 -24.097656 C 2.960938 -9.363281 13.425781 0.964844 28.226562 0.964844 Z M 28.226562 0.964844 "/></g></g></g><g fill="#0a2979" fill-opacity="1"><g transform="translate(804.032084, 173.630115)"><g><path d="M 28.640625 0.964844 C 43.71875 0.964844 54.386719 -9.363281 54.386719 -24.097656 C 54.386719 -38.828125 43.71875 -49.15625 28.640625 -49.15625 C 13.5625 -49.15625 2.960938 -38.828125 2.960938 -24.097656 C 2.960938 -9.363281 13.5625 0.964844 28.640625 0.964844 Z M 14.113281 -24.097656 C 14.113281 -32.769531 20.101562 -38.761719 28.640625 -38.761719 C 37.246094 -38.761719 43.167969 -32.769531 43.167969 -24.097656 C 43.167969 -15.421875 37.246094 -9.433594 28.640625 -9.433594 C 20.101562 -9.433594 14.113281 -15.421875 14.113281 -24.097656 Z M 14.113281 -24.097656 "/></g></g></g><g fill="#14a574" fill-opacity="1"><g transform="translate(640.680252, 214.113894)"><g><path d="M 24.015625 -27.265625 L 24.015625 0 L 20.46875 0 L 20.46875 -12.359375 L 6.578125 -12.359375 L 6.578125 0 L 3.015625 0 L 3.015625 -27.265625 L 6.578125 -27.265625 L 6.578125 -15.296875 L 20.46875 -15.296875 L 20.46875 -27.265625 Z M 24.015625 -27.265625 "/></g></g></g><g fill="#14a574" fill-opacity="1"><g transform="translate(667.736858, 214.113894)"><g><path d="M 22.578125 -11.546875 C 22.578125 -10.867188 22.535156 -10.148438 22.453125 -9.390625 L 5.328125 -9.390625 C 5.453125 -7.273438 6.171875 -5.625 7.484375 -4.4375 C 8.804688 -3.25 10.40625 -2.65625 12.28125 -2.65625 C 13.820312 -2.65625 15.109375 -3.015625 16.140625 -3.734375 C 17.171875 -4.453125 17.894531 -5.410156 18.3125 -6.609375 L 22.140625 -6.609375 C 21.566406 -4.546875 20.421875 -2.867188 18.703125 -1.578125 C 16.984375 -0.285156 14.84375 0.359375 12.28125 0.359375 C 10.25 0.359375 8.429688 -0.0976562 6.828125 -1.015625 C 5.222656 -1.929688 3.960938 -3.226562 3.046875 -4.90625 C 2.140625 -6.59375 1.6875 -8.546875 1.6875 -10.765625 C 1.6875 -12.972656 2.128906 -14.910156 3.015625 -16.578125 C 3.898438 -18.253906 5.144531 -19.539062 6.75 -20.4375 C 8.351562 -21.34375 10.195312 -21.796875 12.28125 -21.796875 C 14.320312 -21.796875 16.125 -21.347656 17.6875 -20.453125 C 19.25 -19.566406 20.453125 -18.347656 21.296875 -16.796875 C 22.148438 -15.242188 22.578125 -13.492188 22.578125 -11.546875 Z M 18.890625 -12.28125 C 18.890625 -13.632812 18.585938 -14.800781 17.984375 -15.78125 C 17.390625 -16.757812 16.578125 -17.503906 15.546875 -18.015625 C 14.515625 -18.523438 13.375 -18.78125 12.125 -18.78125 C 10.320312 -18.78125 8.789062 -18.207031 7.53125 -17.0625 C 6.269531 -15.914062 5.546875 -14.320312 5.359375 -12.28125 Z M 18.890625 -12.28125 "/></g></g></g><g fill="#14a574" fill-opacity="1"><g transform="translate(691.978316, 214.113894)"><g><path d="M 1.6875 -10.796875 C 1.6875 -12.984375 2.128906 -14.90625 3.015625 -16.5625 C 3.898438 -18.21875 5.117188 -19.503906 6.671875 -20.421875 C 8.222656 -21.335938 9.953125 -21.796875 11.859375 -21.796875 C 13.734375 -21.796875 15.359375 -21.390625 16.734375 -20.578125 C 18.117188 -19.765625 19.15625 -18.75 19.84375 -17.53125 L 19.84375 -21.4375 L 23.4375 -21.4375 L 23.4375 0 L 19.84375 0 L 19.84375 -3.984375 C 19.132812 -2.734375 18.082031 -1.695312 16.6875 -0.875 C 15.289062 -0.0507812 13.664062 0.359375 11.8125 0.359375 C 9.90625 0.359375 8.179688 -0.109375 6.640625 -1.046875 C 5.109375 -1.992188 3.898438 -3.3125 3.015625 -5 C 2.128906 -6.695312 1.6875 -8.628906 1.6875 -10.796875 Z M 19.84375 -10.765625 C 19.84375 -12.378906 19.515625 -13.785156 18.859375 -14.984375 C 18.203125 -16.179688 17.316406 -17.097656 16.203125 -17.734375 C 15.097656 -18.378906 13.882812 -18.703125 12.5625 -18.703125 C 11.226562 -18.703125 10.015625 -18.390625 8.921875 -17.765625 C 7.828125 -17.140625 6.953125 -16.222656 6.296875 -15.015625 C 5.648438 -13.816406 5.328125 -12.410156 5.328125 -10.796875 C 5.328125 -9.148438 5.648438 -7.71875 6.296875 -6.5 C 6.953125 -5.289062 7.828125 -4.367188 8.921875 -3.734375 C 10.015625 -3.097656 11.226562 -2.78125 12.5625 -2.78125 C 13.882812 -2.78125 15.097656 -3.097656 16.203125 -3.734375 C 17.316406 -4.367188 18.203125 -5.289062 18.859375 -6.5 C 19.515625 -7.71875 19.84375 -9.140625 19.84375 -10.765625 Z M 19.84375 -10.765625 "/></g></g></g><g fill="#14a574" fill-opacity="1"><g transform="translate(718.409341, 214.113894)"><g><path d="M 6.578125 -28.953125 L 6.578125 0 L 3.015625 0 L 3.015625 -28.953125 Z M 6.578125 -28.953125 "/></g></g></g><g fill="#14a574" fill-opacity="1"><g transform="translate(728.027725, 214.113894)"><g><path d="M 7.359375 -18.5 L 7.359375 -5.875 C 7.359375 -4.820312 7.578125 -4.082031 8.015625 -3.65625 C 8.460938 -3.226562 9.234375 -3.015625 10.328125 -3.015625 L 12.953125 -3.015625 L 12.953125 0 L 9.734375 0 C 7.753906 0 6.269531 -0.453125 5.28125 -1.359375 C 4.289062 -2.273438 3.796875 -3.78125 3.796875 -5.875 L 3.796875 -18.5 L 1.015625 -18.5 L 1.015625 -21.4375 L 3.796875 -21.4375 L 3.796875 -26.84375 L 7.359375 -26.84375 L 7.359375 -21.4375 L 12.953125 -21.4375 L 12.953125 -18.5 Z M 7.359375 -18.5 "/></g></g></g><g fill="#14a574" fill-opacity="1"><g transform="translate(742.259802, 214.113894)"><g><path d="M 13.65625 -21.828125 C 15.269531 -21.828125 16.726562 -21.484375 18.03125 -20.796875 C 19.34375 -20.109375 20.367188 -19.070312 21.109375 -17.6875 C 21.847656 -16.300781 22.21875 -14.617188 22.21875 -12.640625 L 22.21875 0 L 18.703125 0 L 18.703125 -12.125 C 18.703125 -14.269531 18.164062 -15.90625 17.09375 -17.03125 C 16.03125 -18.164062 14.570312 -18.734375 12.71875 -18.734375 C 10.84375 -18.734375 9.347656 -18.144531 8.234375 -16.96875 C 7.128906 -15.800781 6.578125 -14.097656 6.578125 -11.859375 L 6.578125 0 L 3.015625 0 L 3.015625 -28.953125 L 6.578125 -28.953125 L 6.578125 -18.390625 C 7.273438 -19.484375 8.242188 -20.328125 9.484375 -20.921875 C 10.722656 -21.523438 12.113281 -21.828125 13.65625 -21.828125 Z M 13.65625 -21.828125 "/></g></g></g><g fill="#14a574" fill-opacity="1"><g transform="translate(767.283254, 214.113894)"><g><path d="M 1.6875 -10.765625 C 1.6875 -12.972656 2.128906 -14.90625 3.015625 -16.5625 C 3.898438 -18.21875 5.128906 -19.503906 6.703125 -20.421875 C 8.285156 -21.335938 10.09375 -21.796875 12.125 -21.796875 C 14.757812 -21.796875 16.929688 -21.15625 18.640625 -19.875 C 20.347656 -18.59375 21.476562 -16.816406 22.03125 -14.546875 L 18.1875 -14.546875 C 17.820312 -15.859375 17.109375 -16.890625 16.046875 -17.640625 C 14.992188 -18.398438 13.6875 -18.78125 12.125 -18.78125 C 10.09375 -18.78125 8.453125 -18.082031 7.203125 -16.6875 C 5.953125 -15.289062 5.328125 -13.316406 5.328125 -10.765625 C 5.328125 -8.179688 5.953125 -6.179688 7.203125 -4.765625 C 8.453125 -3.359375 10.09375 -2.65625 12.125 -2.65625 C 13.6875 -2.65625 14.988281 -3.019531 16.03125 -3.75 C 17.082031 -4.476562 17.800781 -5.523438 18.1875 -6.890625 L 22.03125 -6.890625 C 21.457031 -4.691406 20.304688 -2.929688 18.578125 -1.609375 C 16.859375 -0.296875 14.707031 0.359375 12.125 0.359375 C 10.09375 0.359375 8.285156 -0.0976562 6.703125 -1.015625 C 5.128906 -1.929688 3.898438 -3.222656 3.015625 -4.890625 C 2.128906 -6.554688 1.6875 -8.515625 1.6875 -10.765625 Z M 1.6875 -10.765625 "/></g></g></g><g fill="#14a574" fill-opacity="1"><g transform="translate(791.016435, 214.113894)"><g><path d="M 1.6875 -10.796875 C 1.6875 -12.984375 2.128906 -14.90625 3.015625 -16.5625 C 3.898438 -18.21875 5.117188 -19.503906 6.671875 -20.421875 C 8.222656 -21.335938 9.953125 -21.796875 11.859375 -21.796875 C 13.734375 -21.796875 15.359375 -21.390625 16.734375 -20.578125 C 18.117188 -19.765625 19.15625 -18.75 19.84375 -17.53125 L 19.84375 -21.4375 L 23.4375 -21.4375 L 23.4375 0 L 19.84375 0 L 19.84375 -3.984375 C 19.132812 -2.734375 18.082031 -1.695312 16.6875 -0.875 C 15.289062 -0.0507812 13.664062 0.359375 11.8125 0.359375 C 9.90625 0.359375 8.179688 -0.109375 6.640625 -1.046875 C 5.109375 -1.992188 3.898438 -3.3125 3.015625 -5 C 2.128906 -6.695312 1.6875 -8.628906 1.6875 -10.796875 Z M 19.84375 -10.765625 C 19.84375 -12.378906 19.515625 -13.785156 18.859375 -14.984375 C 18.203125 -16.179688 17.316406 -17.097656 16.203125 -17.734375 C 15.097656 -18.378906 13.882812 -18.703125 12.5625 -18.703125 C 11.226562 -18.703125 10.015625 -18.390625 8.921875 -17.765625 C 7.828125 -17.140625 6.953125 -16.222656 6.296875 -15.015625 C 5.648438 -13.816406 5.328125 -12.410156 5.328125 -10.796875 C 5.328125 -9.148438 5.648438 -7.71875 6.296875 -6.5 C 6.953125 -5.289062 7.828125 -4.367188 8.921875 -3.734375 C 10.015625 -3.097656 11.226562 -2.78125 12.5625 -2.78125 C 13.882812 -2.78125 15.097656 -3.097656 16.203125 -3.734375 C 17.316406 -4.367188 18.203125 -5.289062 18.859375 -6.5 C 19.515625 -7.71875 19.84375 -9.140625 19.84375 -10.765625 Z M 19.84375 -10.765625 "/></g></g></g><g fill="#14a574" fill-opacity="1"><g transform="translate(817.44746, 214.113894)"><g><path d="M 6.578125 -17.953125 C 7.203125 -19.179688 8.09375 -20.132812 9.25 -20.8125 C 10.414062 -21.488281 11.832031 -21.828125 13.5 -21.828125 L 13.5 -18.15625 L 12.5625 -18.15625 C 8.570312 -18.15625 6.578125 -15.988281 6.578125 -11.65625 L 6.578125 0 L 3.015625 0 L 3.015625 -21.4375 L 6.578125 -21.4375 Z M 6.578125 -17.953125 "/></g></g></g><g fill="#14a574" fill-opacity="1"><g transform="translate(832.031449, 214.113894)"><g><path d="M 22.578125 -11.546875 C 22.578125 -10.867188 22.535156 -10.148438 22.453125 -9.390625 L 5.328125 -9.390625 C 5.453125 -7.273438 6.171875 -5.625 7.484375 -4.4375 C 8.804688 -3.25 10.40625 -2.65625 12.28125 -2.65625 C 13.820312 -2.65625 15.109375 -3.015625 16.140625 -3.734375 C 17.171875 -4.453125 17.894531 -5.410156 18.3125 -6.609375 L 22.140625 -6.609375 C 21.566406 -4.546875 20.421875 -2.867188 18.703125 -1.578125 C 16.984375 -0.285156 14.84375 0.359375 12.28125 0.359375 C 10.25 0.359375 8.429688 -0.0976562 6.828125 -1.015625 C 5.222656 -1.929688 3.960938 -3.226562 3.046875 -4.90625 C 2.140625 -6.59375 1.6875 -8.546875 1.6875 -10.765625 C 1.6875 -12.972656 2.128906 -14.910156 3.015625 -16.578125 C 3.898438 -18.253906 5.144531 -19.539062 6.75 -20.4375 C 8.351562 -21.34375 10.195312 -21.796875 12.28125 -21.796875 C 14.320312 -21.796875 16.125 -21.347656 17.6875 -20.453125 C 19.25 -19.566406 20.453125 -18.347656 21.296875 -16.796875 C 22.148438 -15.242188 22.578125 -13.492188 22.578125 -11.546875 Z M 18.890625 -12.28125 C 18.890625 -13.632812 18.585938 -14.800781 17.984375 -15.78125 C 17.390625 -16.757812 16.578125 -17.503906 15.546875 -18.015625 C 14.515625 -18.523438 13.375 -18.78125 12.125 -18.78125 C 10.320312 -18.78125 8.789062 -18.207031 7.53125 -17.0625 C 6.269531 -15.914062 5.546875 -14.320312 5.359375 -12.28125 Z M 18.890625 -12.28125 "/></g></g></g></svg>